<?xml version="1.0" encoding="UTF-8"?>
<svg width="100px" height="101px" viewBox="0 0 100 101" version="1.1" xmlns="http://www.w3.org/2000/svg" xmlns:xlink="http://www.w3.org/1999/xlink">
    <title>Group 5</title>
    <g id="Page-1" stroke="none" stroke-width="1" fill="none" fill-rule="evenodd">
        <g id="Group-5" fill="#000000" fill-rule="nonzero">
            <path d="M45,0 C69.8528137,0 90,20.1471863 90,45 C90,69.8528137 69.8528137,90 45,90 C20.1471863,90 0,69.8528137 0,45 C0,20.1471863 20.1471863,0 45,0 Z M45,6 C23.4608948,6 6,23.4608948 6,45 C6,66.5391052 23.4608948,84 45,84 C66.5391052,84 84,66.5391052 84,45 C84,23.4608948 66.5391052,6 45,6 Z" id="Oval"></path>
            <path d="M72.8786797,73.8786797 C74.0033896,72.7539697 75.7989525,72.7089813 76.9773307,73.7437145 L77.1213203,73.8786797 L99.1213203,95.8786797 C100.292893,97.0502525 100.292893,98.9497475 99.1213203,100.12132 C97.9966104,101.24603 96.2010475,101.291019 95.0226693,100.256286 L94.8786797,100.12132 L72.8786797,78.1213203 C71.7071068,76.9497475 71.7071068,75.0502525 72.8786797,73.8786797 Z" id="Path-8"></path>
        </g>
    </g>
</svg>