<?xml version="1.0" encoding="UTF-8"?>
<svg width="100px" height="100px" viewBox="0 0 100 100" version="1.1" xmlns="http://www.w3.org/2000/svg" xmlns:xlink="http://www.w3.org/1999/xlink">
    <title>Slice 1</title>
    <g id="Page-1" stroke="none" stroke-width="1" fill="none" fill-rule="evenodd">
        <g id="Group-3">
            <circle id="Oval" stroke="#000000" stroke-width="6" fill-opacity="0" fill="#FFFFFF" cx="50" cy="50" r="47"></circle>
            <path d="M73,47 C74.6568542,47 76,48.3431458 76,50 C76,51.5976809 74.75108,52.9036609 73.1762728,52.9949073 L73,53 L26,53 C24.3431458,53 23,51.6568542 23,50 C23,48.4023191 24.24892,47.0963391 25.8237272,47.0050927 L26,47 L73,47 Z" id="Path-3" fill="#000000" fill-rule="nonzero"></path>
            <path d="M71.1510752,47.637485 C72.4558562,46.616352 74.341382,46.8462942 75.362515,48.1510752 C76.3443736,49.4056723 76.1695429,51.1972007 74.9946964,52.2409381 L74.8489248,52.362515 L51.8489248,70.362515 C50.5441438,71.383648 48.658618,71.1537058 47.637485,69.8489248 C46.6556264,68.5943277 46.8304571,66.8027993 48.0053036,65.7590619 L48.1510752,65.637485 L71.1510752,47.637485 Z" id="Path-4" fill="#000000" fill-rule="nonzero"></path>
            <path d="M47.5874716,31.2168268 C48.5344133,29.9356704 50.3075941,29.6258812 51.6270929,30.4794473 L51.7831732,30.5874716 L74.7831732,47.5874716 C76.1155758,48.5722909 76.3973478,50.4507705 75.4125284,51.7831732 C74.4655867,53.0643296 72.6924059,53.3741188 71.3729071,52.5205527 L71.2168268,52.4125284 L48.2168268,35.4125284 C46.8844242,34.4277091 46.6026522,32.5492295 47.5874716,31.2168268 Z" id="Path-5" fill="#000000" fill-rule="nonzero"></path>
        </g>
    </g>
</svg>