<?xml version="1.0" encoding="UTF-8"?>
<svg width="101px" height="102px" viewBox="0 0 101 102" version="1.1" xmlns="http://www.w3.org/2000/svg" xmlns:xlink="http://www.w3.org/1999/xlink">
    <title>Slice 1</title>
    <g id="Page-1" stroke="none" stroke-width="1" fill="none" fill-rule="evenodd">
        <g id="Group-4" transform="translate(0.381747, 0.749327)" fill="#000000" fill-rule="nonzero">
            <path d="M9.74888454,10.7553859 C-2.72939926,23.2336697 -3.64694888,44.9927034 9.42533891,63.3756081 C18.2669551,75.8091309 27.8293418,85.3120822 38.1262221,91.8611419 L38.9037217,92.3492884 L39.0136516,92.4056627 C50.1439862,98.1135266 59.5272125,101.000673 67.2421057,101.000673 C72.9310919,101.000673 78.247165,98.4454336 83.1852312,94.0412123 C86.5868737,91.007315 89.4166857,87.502502 92.0523062,83.5490713 C96.8071243,76.4168441 95.4954307,68.6778515 86.953646,61.4173345 C78.7176278,54.4483862 71.0766065,53.5598954 65.1207854,59.5157164 L58.5372533,66.1006732 L43.7142533,56.9246732 L32.1632533,40.7526732 L32.2040256,40.6642945 C32.3236314,40.4226294 32.5118556,40.1184855 32.7744688,39.7631852 C33.763714,38.4247947 35.5549778,36.6963822 38.1244553,34.6408002 C45.1958392,28.9836932 44.0602575,20.7552508 35.9040813,11.2351532 L35.5142435,10.784879 L35.3960323,10.6754242 C26.8923488,2.80164319 18.0010105,2.71113996 10.0266847,10.4811504 L9.74888454,10.7553859 Z M31.0393113,14.8217759 L31.2042533,14.9726732 L31.6589262,15.5040524 C37.5040514,22.4322723 38.1098317,26.8181896 34.5463718,29.8160738 L33.693234,30.5080592 C27.5580575,35.5275083 24.9003788,39.3259704 26.4681417,42.9840839 L26.5958861,43.2821543 L39.5311268,61.3914913 L59.4188464,73.7029367 L69.3634261,63.7583571 C72.7739962,60.347787 76.9787048,60.8367067 83.072874,65.9933113 C89.3447254,71.3243949 90.0838327,75.6851277 87.0600044,80.2208701 C81.1691561,89.0571426 74.5051976,95.0006732 67.2421057,95.0006732 L66.8264797,94.9972578 C60.5547481,94.8947896 52.6031691,92.4861774 43.0366515,87.7166854 L41.8702533,87.1276732 L41.9664039,87.1883544 C32.1340899,81.0763753 22.9120996,71.9880372 14.3150709,59.8984654 C2.88213223,43.8208955 3.66197079,25.327581 13.9915252,14.9980266 C19.6348271,9.35472471 24.8870462,9.27049633 31.0393113,14.8217759 Z" id="Path-6"></path>
            <path d="M52.3346553,15.5114141 C52.705281,13.8965449 54.3148427,12.8878862 55.9297119,13.258512 C73.8715189,17.3763037 84.2145689,27.110939 86.3288334,42.2128288 C86.5585527,43.8536807 85.4146037,45.3700783 83.7737517,45.5997976 C82.1328998,45.8295168 80.6165022,44.6855678 80.386783,43.0447159 C78.6442982,30.5983963 70.2545658,22.7021775 54.5875574,19.1064707 C52.9726882,18.735845 51.9640296,17.1262833 52.3346553,15.5114141 Z" id="Path-7"></path>
            <path d="M53.296284,2.3168652 C53.6739407,0.703625782 55.2878809,-0.298011914 56.9011203,0.0796447893 C82.7535958,6.13166693 97.4950822,20.2834939 100.511761,42.2621546 C100.73706,43.9036193 99.5890311,45.4169303 97.9475664,45.6422294 C96.3061017,45.8675285 94.7927907,44.7194994 94.5674916,43.0780347 C91.9124804,23.7343814 79.1057574,11.4399273 55.5335044,5.92170151 C53.920265,5.54404481 52.9186273,3.93010462 53.296284,2.3168652 Z" id="Path-7"></path>
        </g>
    </g>
</svg>