<?xml version="1.0" encoding="UTF-8"?>
<svg width="101px" height="101px" viewBox="0 0 101 101" version="1.1" xmlns="http://www.w3.org/2000/svg" xmlns:xlink="http://www.w3.org/1999/xlink">
    <title>Slice 1</title>
    <g id="Page-1" stroke="none" stroke-width="1" fill="none" fill-rule="evenodd">
        <g id="Group" transform="translate(0.782440, 0.021368)" fill="#000000" fill-rule="nonzero">
            <path d="M50,0 C77.6142375,0 100,22.3857625 100,50 C100,77.6142375 77.6142375,100 50,100 C22.3857625,100 0,77.6142375 0,50 C0,22.3857625 22.3857625,0 50,0 Z M50,6 C25.699471,6 6,25.699471 6,50 C6,74.300529 25.699471,94 50,94 C74.300529,94 94,74.300529 94,50 C94,25.699471 74.300529,6 50,6 Z" id="Oval"></path>
            <path d="M49.5,20 C59.1649831,20 67,27.8350169 67,37.5 C67,47.1649831 59.1649831,55 49.5,55 C39.8350169,55 32,47.1649831 32,37.5 C32,27.8350169 39.8350169,20 49.5,20 Z M49.5,26 C43.1487254,26 38,31.1487254 38,37.5 C38,43.8512746 43.1487254,49 49.5,49 C55.8512746,49 61,43.8512746 61,37.5 C61,31.1487254 55.8512746,26 49.5,26 Z" id="Oval-Copy-2"></path>
            <path d="M48.1716319,50.9855814 C64.2416334,52.0812633 72.7955213,60.9622937 72.964992,76.7481603 L72.9675602,77.2286325 L72.9675602,92.4881273 L66.9675602,92.4887071 L66.9675602,77.2286325 C66.9675602,64.4521438 60.9936588,58.0028961 48.179231,57.0020792 L47.7634886,56.9716836 L48.1716319,50.9855814 Z" id="Path"></path>
            <path d="M29.1716319,50.9855814 C45.2416334,52.0812633 53.7955213,60.9622937 53.964992,76.7481603 L53.9675602,77.2286325 L53.9675602,92.4881273 L47.9675602,92.4887071 L47.9675602,77.2286325 C47.9675602,64.4521438 41.9936588,58.0028961 29.179231,57.0020792 L28.7634886,56.9716836 L29.1716319,50.9855814 Z" id="Path-Copy" transform="translate(41.365524, 71.737144) scale(-1, 1) translate(-41.365524, -71.737144) "></path>
        </g>
    </g>
</svg>