<?xml version="1.0" encoding="UTF-8"?>
<svg width="96px" height="100px" viewBox="0 0 96 100" version="1.1" xmlns="http://www.w3.org/2000/svg" xmlns:xlink="http://www.w3.org/1999/xlink">
    <title>Slice 1</title>
    <g id="Page-1" stroke="none" stroke-width="1" fill="none" fill-rule="evenodd">
        <g id="Group-2" transform="translate(3.418803, 3.465812)" fill="#000000" fill-rule="nonzero">
            <path d="M74.8636364,70.5555556 C81.7671957,70.5555556 87.3636364,76.1519962 87.3636364,83.0555556 C87.3636364,89.9591149 81.7671957,95.5555556 74.8636364,95.5555556 C67.960077,95.5555556 62.3636364,89.9591149 62.3636364,83.0555556 C62.3636364,76.1519962 67.960077,70.5555556 74.8636364,70.5555556 Z M74.8636364,76.5555556 C71.2737855,76.5555556 68.3636364,79.4657047 68.3636364,83.0555556 C68.3636364,86.6454064 71.2737855,89.5555556 74.8636364,89.5555556 C78.4534872,89.5555556 81.3636364,86.6454064 81.3636364,83.0555556 C81.3636364,79.4657047 78.4534872,76.5555556 74.8636364,76.5555556 Z" id="Oval"></path>
            <path d="M33.8636364,70.5555556 C40.7671957,70.5555556 46.3636364,76.1519962 46.3636364,83.0555556 C46.3636364,89.9591149 40.7671957,95.5555556 33.8636364,95.5555556 C26.960077,95.5555556 21.3636364,89.9591149 21.3636364,83.0555556 C21.3636364,76.1519962 26.960077,70.5555556 33.8636364,70.5555556 Z M33.8636364,76.5555556 C30.2737855,76.5555556 27.3636364,79.4657047 27.3636364,83.0555556 C27.3636364,86.6454064 30.2737855,89.5555556 33.8636364,89.5555556 C37.4534872,89.5555556 40.3636364,86.6454064 40.3636364,83.0555556 C40.3636364,79.4657047 37.4534872,76.5555556 33.8636364,76.5555556 Z" id="Oval-Copy"></path>
            <path d="M13.0909091,-3 C14.4371895,-3 15.6103369,-2.10476409 15.9755346,-0.824164709 L16.0202668,-0.647196788 L28.977,57.999 L77.16,57.999 L85.765,22.534 L33.8311966,22.534188 C32.2335157,22.534188 30.9275357,21.2852681 30.8362893,19.7104608 L30.8311966,19.534188 C30.8311966,17.9365072 32.0801165,16.6305272 33.6549238,16.5392807 L33.8311966,16.534188 L89.5811966,16.534188 C91.465444,16.534188 92.867624,18.2446698 92.5330913,20.0701556 L92.4966026,20.2415831 L82.4353243,61.7073951 C82.1230853,62.994234 81.0073746,63.9168759 79.6994112,63.9946731 L79.5199183,64 L26.5679265,64 C25.221646,64 24.0484986,63.1047641 23.6833009,61.8241647 L23.6385688,61.6471968 L10.681,2.999 L0,3 C-1.59768088,3 -2.90366088,1.75108004 -2.99490731,0.176272788 L-3,-2.84217094e-14 C-3,-1.59768088 -1.75108004,-2.90366088 -0.176272788,-2.99490731 L0,-3 L13.0909091,-3 Z" id="Path-2"></path>
        </g>
    </g>
</svg>